#!OML:ASF F:\twosubjects\two\Thursday\Session 1\Rory.ASF
:FULLY-SPECIFIED
:DEGREES
385
root 7.06354 17.1565 1.86464 206.584 0.404088 176.584
lowerback 19.2176 0.604494 -3.33371
upperback 8.94504 -1.41487 -0.262744
thorax -1.08072 -1.44218 1.89906
lowerneck -9.16396 -4.07081 -6.22308
upperneck -6.40414 -4.18561 7.65496
head -0.126675 -1.6888 3.45442
rclavicle 1.61016e-014 3.97569e-015
rhumerus 3.72031 47.5583 -70.4157
rradius 67.0035
rwrist -19.0602
rhand -64.5568 42.9683
rfingers 7.12502
rthumb -36.4782 16.7707
lclavicle 1.61016e-014 3.97569e-015
lhumerus -3.0613 -43.1988 72.5563
lradius 65.768
lwrist -0.0628065
lhand -30.7833 1526.59
lfingers 7.12502
lthumb -4.07387 603.473
rfemur -27.163 2.83583 -4.55301
rtibia 31.4865
rfoot -23.1973 -20.0718
rtoes -12.1565
lfemur -27.8931 3.40066 -4.1458
ltibia 27.5812
lfoot -18.6505 11.5505
ltoes -23.0309
386
root 7.06982 17.1465 1.87851 206.563 0.764675 176.583
lowerback 18.8457 0.716086 -3.58586
upperback 8.87741 -1.26846 -0.321498
thorax -0.967636 -1.36544 1.94326
lowerneck -9.16584 -4.05634 -6.3559
upperneck -6.1365 -4.18367 7.84994
head -0.0306907 -1.69351 3.54578
rclavicle 1.60022e-014 4.42296e-015
rhumerus 3.85091 47.4158 -70.6032
rradius 66.3817
rwrist -19.0026
rhand -63.7632 47.6685
rfingers 7.12502
rthumb -35.7265 21.2853
lclavicle 1.60022e-014 4.42296e-015
lhumerus -3.01311 -43.1024 72.7769
lradius 65.1466
lwrist -0.205316
lhand -30.5822 1526.29
lfingers 7.12502
lthumb -3.87965 603.766
rfemur -27.4106 3.36985 -4.81327
rtibia 31.6148
rfoot -23.335 -20.1729
rtoes -11.4041
lfemur -27.5651 3.42579 -4.18992
ltibia 27.2987
lfoot -18.8866 11.5027
ltoes -22.0892
387
root 7.07313 17.1698 1.88422 206.402 0.573285 176.677
lowerback 18.7156 0.623961 -3.38229
upperback 8.89774 -1.34477 -0.288878
thorax -0.878158 -1.39869 1.87309
lowerneck -9.32024 -3.99382 -6.22415
upperneck -5.94191 -4.12206 7.67942
head 0.0459655 -1.66678 3.45977
rclavicle 1.08338e-014 -4.82053e-015
rhumerus 3.93264 47.1633 -70.8177
rradius 65.9014
rwrist -18.7204
rhand -63.2013 54.8028
rfingers 7.12502
rthumb -35.1939 28.2923
lclavicle 1.08338e-014 -4.82053e-015
lhumerus -2.81402 -43.1443 72.596
lradius 64.7951
lwrist 0.0474046
lhand -31.068 1526.33
lfingers 7.12502
lthumb -4.34881 603.734
rfemur -27.2221 3.36406 -4.61862
rtibia 31.6352
rfoot -23.6649 -19.8097
rtoes -10.4339
lfemur -27.5912 3.40918 -4.08799
ltibia 27.278
lfoot -18.3085 11.7676
ltoes -23.2622
388
root 7.07195 17.1622 1.901 206.235 0.341844 176.764
lowerback 18.7454 0.643738 -2.87843
upperback 8.87951 -1.2295 -0.416151
thorax -0.931885 -1.31924 1.43343
lowerneck -9.32326 -4.08562 -5.55257
upperneck -5.94665 -4.30829 7.36404
head 0.0311576 -1.77316 3.21457
rclavicle -2.18663e-015 -6.4605e-015
rhumerus 3.50264 46.2857 -71.5671
rradius 65.3532
rwrist -18.1911
rhand -63.7114 58.919
rfingers 7.12502
rthumb -35.6775 32.5239
lclavicle -2.18663e-015 -6.4605e-015
lhumerus -2.55709 -43.7158 72.2679
lradius 64.7191
lwrist 0.275788
lhand -31.5088 1526.15
lfingers 7.12502
lthumb -4.7744 603.928
rfemur -27.1057 3.51706 -4.48559
rtibia 31.7331
rfoot -23.7568 -19.7812
rtoes -10.6978
lfemur -27.335 3.12678 -3.7999
ltibia 27.1806
lfoot -18.8213 10.9162
ltoes -17.9036
389
root 7.07126 17.1577 1.91626 206.075 0.370431 176.817
lowerback 18.7787 0.865386 -2.45086
upperback 8.86262 -0.868066 -0.688609
thorax -0.992428 -1.11797 0.83681
lowerneck -9.61528 -4.31663 -4.86093
upperneck -5.57468 -4.69471 7.53629
head 0.212817 -1.97341 3.11976
rclavicle 3.47873e-016 4.26145e-015
rhumerus 3.13797 44.9235 -72.5621
rradius 64.6301
rwrist -17.7892
rhand -63.6523 63.4745
rfingers 7.12502
rthumb -35.6215 37.0659
lclavicle 3.47873e-016 4.26145e-015
lhumerus -1.75612 -44.7592 71.4879
lradius 64.4516
lwrist 0.505464
lhand -31.3707 1525.77
lfingers 7.12502
lthumb -4.64113 604.3
rfemur -27.019 3.54627 -4.40818
rtibia 31.6974
rfoot -23.3996 -19.9879
rtoes -11.5526
lfemur -27.1465 3.0687 -3.72099
ltibia 27.1172
lfoot -18.8573 10.8331
ltoes -16.6501
390
root 7.0684 17.1681 1.92911 205.963 0.420555 176.894
lowerback 18.6823 0.839788 -2.41918
upperback 8.81595 -0.878586 -0.662054
thorax -0.992496 -1.11705 0.848117
lowerneck -9.87572 -4.28196 -5.03895
upperneck -5.12484 -4.66268 7.7066
head 0.411845 -1.95472 3.20639
rclavicle 3.926e-015 2.12451e-015
rhumerus 3.30749 44.8419 -72.7846
rradius 64.1825
rwrist -17.7231
rhand -63.4034 63.9956
rfingers 7.12502
rthumb -35.3855 37.5304
lclavicle 3.926e-015 2.12451e-015
lhumerus -1.35316 -44.6595 71.281
lradius 63.9012
lwrist 0.314288
lhand -30.7912 1524.48
lfingers 7.12502
lthumb -4.08149 605.576
rfemur -26.9218 3.53276 -4.29569
rtibia 31.612
rfoot -23.2008 -20.0892
rtoes -11.5742
lfemur -27.0455 3.13246 -3.68781
ltibia 27.093
lfoot -18.754 10.8565
ltoes -16.9042
